<mxfile host="Electron" agent="Mozilla/5.0 (Windows NT 10.0; Win64; x64) AppleWebKit/537.36 (KHTML, like Gecko) draw.io/27.0.9 Chrome/134.0.6998.205 Electron/35.4.0 Safari/537.36" version="27.0.9">
  <diagram name="Page-1" id="tiloIOEPJ2dI2Tnao4es">
    <mxGraphModel dx="2076" dy="736" grid="1" gridSize="10" guides="1" tooltips="1" connect="1" arrows="1" fold="1" page="1" pageScale="1" pageWidth="850" pageHeight="1100" math="0" shadow="0">
      <root>
        <mxCell id="0" />
        <mxCell id="1" parent="0" />
        <mxCell id="8XU_Pl_0qXl7zwyLGYIP-1" value="&lt;font style=&quot;&quot;&gt;&lt;b style=&quot;font-size: 18px;&quot;&gt;Data Marts&amp;nbsp;&lt;/b&gt;&lt;b style=&quot;font-size: 14px;&quot;&gt;(Star Schema)&lt;/b&gt;&lt;/font&gt;" style="rounded=0;whiteSpace=wrap;html=1;strokeColor=none;" parent="1" vertex="1">
          <mxGeometry y="20" width="200" height="60" as="geometry" />
        </mxCell>
        <mxCell id="8XU_Pl_0qXl7zwyLGYIP-6" value="gold.dim_customers" style="shape=table;startSize=30;container=1;collapsible=1;childLayout=tableLayout;fixedRows=1;rowLines=0;fontStyle=1;align=center;resizeLast=1;html=1;fillColor=#fff2cc;strokeColor=#d6b656;rounded=1;fontSize=15;" parent="1" vertex="1">
          <mxGeometry x="-70" y="190" width="200" height="424" as="geometry" />
        </mxCell>
        <mxCell id="8XU_Pl_0qXl7zwyLGYIP-7" value="" style="shape=tableRow;horizontal=0;startSize=0;swimlaneHead=0;swimlaneBody=0;fillColor=none;collapsible=0;dropTarget=0;points=[[0,0.5],[1,0.5]];portConstraint=eastwest;top=0;left=0;right=0;bottom=1;fontSize=15;" parent="8XU_Pl_0qXl7zwyLGYIP-6" vertex="1">
          <mxGeometry y="30" width="200" height="39" as="geometry" />
        </mxCell>
        <mxCell id="8XU_Pl_0qXl7zwyLGYIP-8" value="PK" style="shape=partialRectangle;connectable=0;fillColor=none;top=0;left=0;bottom=0;right=0;fontStyle=1;overflow=hidden;whiteSpace=wrap;html=1;fontSize=15;" parent="8XU_Pl_0qXl7zwyLGYIP-7" vertex="1">
          <mxGeometry width="30" height="39" as="geometry">
            <mxRectangle width="30" height="39" as="alternateBounds" />
          </mxGeometry>
        </mxCell>
        <mxCell id="8XU_Pl_0qXl7zwyLGYIP-9" value="&lt;span style=&quot;background-color: rgb(204, 204, 204);&quot;&gt;customer_key&lt;/span&gt;" style="shape=partialRectangle;connectable=0;fillColor=none;top=0;left=0;bottom=0;right=0;align=left;spacingLeft=6;fontStyle=5;overflow=hidden;whiteSpace=wrap;html=1;fontSize=15;" parent="8XU_Pl_0qXl7zwyLGYIP-7" vertex="1">
          <mxGeometry x="30" width="170" height="39" as="geometry">
            <mxRectangle width="170" height="39" as="alternateBounds" />
          </mxGeometry>
        </mxCell>
        <mxCell id="8XU_Pl_0qXl7zwyLGYIP-13" value="" style="shape=tableRow;horizontal=0;startSize=0;swimlaneHead=0;swimlaneBody=0;fillColor=none;collapsible=0;dropTarget=0;points=[[0,0.5],[1,0.5]];portConstraint=eastwest;top=0;left=0;right=0;bottom=0;fontSize=15;" parent="8XU_Pl_0qXl7zwyLGYIP-6" vertex="1">
          <mxGeometry y="69" width="200" height="39" as="geometry" />
        </mxCell>
        <mxCell id="8XU_Pl_0qXl7zwyLGYIP-14" value="" style="shape=partialRectangle;connectable=0;fillColor=none;top=0;left=0;bottom=0;right=0;editable=1;overflow=hidden;whiteSpace=wrap;html=1;fontSize=15;" parent="8XU_Pl_0qXl7zwyLGYIP-13" vertex="1">
          <mxGeometry width="30" height="39" as="geometry">
            <mxRectangle width="30" height="39" as="alternateBounds" />
          </mxGeometry>
        </mxCell>
        <mxCell id="8XU_Pl_0qXl7zwyLGYIP-15" value="customer_id" style="shape=partialRectangle;connectable=0;fillColor=none;top=0;left=0;bottom=0;right=0;align=left;spacingLeft=6;overflow=hidden;whiteSpace=wrap;html=1;fontSize=15;strokeColor=inherit;" parent="8XU_Pl_0qXl7zwyLGYIP-13" vertex="1">
          <mxGeometry x="30" width="170" height="39" as="geometry">
            <mxRectangle width="170" height="39" as="alternateBounds" />
          </mxGeometry>
        </mxCell>
        <mxCell id="8XU_Pl_0qXl7zwyLGYIP-16" value="" style="shape=tableRow;horizontal=0;startSize=0;swimlaneHead=0;swimlaneBody=0;fillColor=none;collapsible=0;dropTarget=0;points=[[0,0.5],[1,0.5]];portConstraint=eastwest;top=0;left=0;right=0;bottom=0;fontSize=15;" parent="8XU_Pl_0qXl7zwyLGYIP-6" vertex="1">
          <mxGeometry y="108" width="200" height="39" as="geometry" />
        </mxCell>
        <mxCell id="8XU_Pl_0qXl7zwyLGYIP-17" value="" style="shape=partialRectangle;connectable=0;fillColor=none;top=0;left=0;bottom=0;right=0;editable=1;overflow=hidden;whiteSpace=wrap;html=1;fontSize=15;" parent="8XU_Pl_0qXl7zwyLGYIP-16" vertex="1">
          <mxGeometry width="30" height="39" as="geometry">
            <mxRectangle width="30" height="39" as="alternateBounds" />
          </mxGeometry>
        </mxCell>
        <mxCell id="8XU_Pl_0qXl7zwyLGYIP-18" value="customer_number" style="shape=partialRectangle;connectable=0;fillColor=none;top=0;left=0;bottom=0;right=0;align=left;spacingLeft=6;overflow=hidden;whiteSpace=wrap;html=1;fontSize=15;" parent="8XU_Pl_0qXl7zwyLGYIP-16" vertex="1">
          <mxGeometry x="30" width="170" height="39" as="geometry">
            <mxRectangle width="170" height="39" as="alternateBounds" />
          </mxGeometry>
        </mxCell>
        <mxCell id="8XU_Pl_0qXl7zwyLGYIP-19" value="" style="shape=tableRow;horizontal=0;startSize=0;swimlaneHead=0;swimlaneBody=0;fillColor=none;collapsible=0;dropTarget=0;points=[[0,0.5],[1,0.5]];portConstraint=eastwest;top=0;left=0;right=0;bottom=0;fontSize=15;" parent="8XU_Pl_0qXl7zwyLGYIP-6" vertex="1">
          <mxGeometry y="147" width="200" height="43" as="geometry" />
        </mxCell>
        <mxCell id="8XU_Pl_0qXl7zwyLGYIP-20" value="" style="shape=partialRectangle;connectable=0;fillColor=none;top=0;left=0;bottom=0;right=0;editable=1;overflow=hidden;whiteSpace=wrap;html=1;fontSize=15;" parent="8XU_Pl_0qXl7zwyLGYIP-19" vertex="1">
          <mxGeometry width="30" height="43" as="geometry">
            <mxRectangle width="30" height="43" as="alternateBounds" />
          </mxGeometry>
        </mxCell>
        <mxCell id="8XU_Pl_0qXl7zwyLGYIP-21" value="first_name" style="shape=partialRectangle;connectable=0;fillColor=none;top=0;left=0;bottom=0;right=0;align=left;spacingLeft=6;overflow=hidden;whiteSpace=wrap;html=1;fontSize=15;" parent="8XU_Pl_0qXl7zwyLGYIP-19" vertex="1">
          <mxGeometry x="30" width="170" height="43" as="geometry">
            <mxRectangle width="170" height="43" as="alternateBounds" />
          </mxGeometry>
        </mxCell>
        <mxCell id="8XU_Pl_0qXl7zwyLGYIP-22" value="" style="shape=tableRow;horizontal=0;startSize=0;swimlaneHead=0;swimlaneBody=0;fillColor=none;collapsible=0;dropTarget=0;points=[[0,0.5],[1,0.5]];portConstraint=eastwest;top=0;left=0;right=0;bottom=0;fontSize=15;" parent="8XU_Pl_0qXl7zwyLGYIP-6" vertex="1">
          <mxGeometry y="190" width="200" height="39" as="geometry" />
        </mxCell>
        <mxCell id="8XU_Pl_0qXl7zwyLGYIP-23" value="" style="shape=partialRectangle;connectable=0;fillColor=none;top=0;left=0;bottom=0;right=0;editable=1;overflow=hidden;whiteSpace=wrap;html=1;fontSize=15;" parent="8XU_Pl_0qXl7zwyLGYIP-22" vertex="1">
          <mxGeometry width="30" height="39" as="geometry">
            <mxRectangle width="30" height="39" as="alternateBounds" />
          </mxGeometry>
        </mxCell>
        <mxCell id="8XU_Pl_0qXl7zwyLGYIP-24" value="last_name" style="shape=partialRectangle;connectable=0;fillColor=none;top=0;left=0;bottom=0;right=0;align=left;spacingLeft=6;overflow=hidden;whiteSpace=wrap;html=1;fontSize=15;" parent="8XU_Pl_0qXl7zwyLGYIP-22" vertex="1">
          <mxGeometry x="30" width="170" height="39" as="geometry">
            <mxRectangle width="170" height="39" as="alternateBounds" />
          </mxGeometry>
        </mxCell>
        <mxCell id="8XU_Pl_0qXl7zwyLGYIP-25" value="" style="shape=tableRow;horizontal=0;startSize=0;swimlaneHead=0;swimlaneBody=0;fillColor=none;collapsible=0;dropTarget=0;points=[[0,0.5],[1,0.5]];portConstraint=eastwest;top=0;left=0;right=0;bottom=0;fontSize=15;" parent="8XU_Pl_0qXl7zwyLGYIP-6" vertex="1">
          <mxGeometry y="229" width="200" height="39" as="geometry" />
        </mxCell>
        <mxCell id="8XU_Pl_0qXl7zwyLGYIP-26" value="" style="shape=partialRectangle;connectable=0;fillColor=none;top=0;left=0;bottom=0;right=0;editable=1;overflow=hidden;whiteSpace=wrap;html=1;fontSize=15;" parent="8XU_Pl_0qXl7zwyLGYIP-25" vertex="1">
          <mxGeometry width="30" height="39" as="geometry">
            <mxRectangle width="30" height="39" as="alternateBounds" />
          </mxGeometry>
        </mxCell>
        <mxCell id="8XU_Pl_0qXl7zwyLGYIP-27" value="country" style="shape=partialRectangle;connectable=0;fillColor=none;top=0;left=0;bottom=0;right=0;align=left;spacingLeft=6;overflow=hidden;whiteSpace=wrap;html=1;fontSize=15;" parent="8XU_Pl_0qXl7zwyLGYIP-25" vertex="1">
          <mxGeometry x="30" width="170" height="39" as="geometry">
            <mxRectangle width="170" height="39" as="alternateBounds" />
          </mxGeometry>
        </mxCell>
        <mxCell id="8XU_Pl_0qXl7zwyLGYIP-28" value="" style="shape=tableRow;horizontal=0;startSize=0;swimlaneHead=0;swimlaneBody=0;fillColor=none;collapsible=0;dropTarget=0;points=[[0,0.5],[1,0.5]];portConstraint=eastwest;top=0;left=0;right=0;bottom=0;fontSize=15;" parent="8XU_Pl_0qXl7zwyLGYIP-6" vertex="1">
          <mxGeometry y="268" width="200" height="39" as="geometry" />
        </mxCell>
        <mxCell id="8XU_Pl_0qXl7zwyLGYIP-29" value="" style="shape=partialRectangle;connectable=0;fillColor=none;top=0;left=0;bottom=0;right=0;editable=1;overflow=hidden;whiteSpace=wrap;html=1;fontSize=15;" parent="8XU_Pl_0qXl7zwyLGYIP-28" vertex="1">
          <mxGeometry width="30" height="39" as="geometry">
            <mxRectangle width="30" height="39" as="alternateBounds" />
          </mxGeometry>
        </mxCell>
        <mxCell id="8XU_Pl_0qXl7zwyLGYIP-30" value="marital_status" style="shape=partialRectangle;connectable=0;fillColor=none;top=0;left=0;bottom=0;right=0;align=left;spacingLeft=6;overflow=hidden;whiteSpace=wrap;html=1;fontSize=15;" parent="8XU_Pl_0qXl7zwyLGYIP-28" vertex="1">
          <mxGeometry x="30" width="170" height="39" as="geometry">
            <mxRectangle width="170" height="39" as="alternateBounds" />
          </mxGeometry>
        </mxCell>
        <mxCell id="8XU_Pl_0qXl7zwyLGYIP-31" value="" style="shape=tableRow;horizontal=0;startSize=0;swimlaneHead=0;swimlaneBody=0;fillColor=none;collapsible=0;dropTarget=0;points=[[0,0.5],[1,0.5]];portConstraint=eastwest;top=0;left=0;right=0;bottom=0;fontSize=15;" parent="8XU_Pl_0qXl7zwyLGYIP-6" vertex="1">
          <mxGeometry y="307" width="200" height="39" as="geometry" />
        </mxCell>
        <mxCell id="8XU_Pl_0qXl7zwyLGYIP-32" value="" style="shape=partialRectangle;connectable=0;fillColor=none;top=0;left=0;bottom=0;right=0;editable=1;overflow=hidden;whiteSpace=wrap;html=1;fontSize=15;" parent="8XU_Pl_0qXl7zwyLGYIP-31" vertex="1">
          <mxGeometry width="30" height="39" as="geometry">
            <mxRectangle width="30" height="39" as="alternateBounds" />
          </mxGeometry>
        </mxCell>
        <mxCell id="8XU_Pl_0qXl7zwyLGYIP-33" value="gender" style="shape=partialRectangle;connectable=0;fillColor=none;top=0;left=0;bottom=0;right=0;align=left;spacingLeft=6;overflow=hidden;whiteSpace=wrap;html=1;fontSize=15;" parent="8XU_Pl_0qXl7zwyLGYIP-31" vertex="1">
          <mxGeometry x="30" width="170" height="39" as="geometry">
            <mxRectangle width="170" height="39" as="alternateBounds" />
          </mxGeometry>
        </mxCell>
        <mxCell id="8XU_Pl_0qXl7zwyLGYIP-34" value="" style="shape=tableRow;horizontal=0;startSize=0;swimlaneHead=0;swimlaneBody=0;fillColor=none;collapsible=0;dropTarget=0;points=[[0,0.5],[1,0.5]];portConstraint=eastwest;top=0;left=0;right=0;bottom=0;fontSize=15;" parent="8XU_Pl_0qXl7zwyLGYIP-6" vertex="1">
          <mxGeometry y="346" width="200" height="39" as="geometry" />
        </mxCell>
        <mxCell id="8XU_Pl_0qXl7zwyLGYIP-35" value="" style="shape=partialRectangle;connectable=0;fillColor=none;top=0;left=0;bottom=0;right=0;editable=1;overflow=hidden;whiteSpace=wrap;html=1;fontSize=15;" parent="8XU_Pl_0qXl7zwyLGYIP-34" vertex="1">
          <mxGeometry width="30" height="39" as="geometry">
            <mxRectangle width="30" height="39" as="alternateBounds" />
          </mxGeometry>
        </mxCell>
        <mxCell id="8XU_Pl_0qXl7zwyLGYIP-36" value="birthdate" style="shape=partialRectangle;connectable=0;fillColor=none;top=0;left=0;bottom=0;right=0;align=left;spacingLeft=6;overflow=hidden;whiteSpace=wrap;html=1;fontSize=15;" parent="8XU_Pl_0qXl7zwyLGYIP-34" vertex="1">
          <mxGeometry x="30" width="170" height="39" as="geometry">
            <mxRectangle width="170" height="39" as="alternateBounds" />
          </mxGeometry>
        </mxCell>
        <mxCell id="8XU_Pl_0qXl7zwyLGYIP-40" value="" style="shape=tableRow;horizontal=0;startSize=0;swimlaneHead=0;swimlaneBody=0;fillColor=none;collapsible=0;dropTarget=0;points=[[0,0.5],[1,0.5]];portConstraint=eastwest;top=0;left=0;right=0;bottom=0;fontSize=15;" parent="8XU_Pl_0qXl7zwyLGYIP-6" vertex="1">
          <mxGeometry y="385" width="200" height="39" as="geometry" />
        </mxCell>
        <mxCell id="8XU_Pl_0qXl7zwyLGYIP-41" value="" style="shape=partialRectangle;connectable=0;fillColor=none;top=0;left=0;bottom=0;right=0;editable=1;overflow=hidden;whiteSpace=wrap;html=1;fontSize=15;" parent="8XU_Pl_0qXl7zwyLGYIP-40" vertex="1">
          <mxGeometry width="30" height="39" as="geometry">
            <mxRectangle width="30" height="39" as="alternateBounds" />
          </mxGeometry>
        </mxCell>
        <mxCell id="8XU_Pl_0qXl7zwyLGYIP-42" value="country" style="shape=partialRectangle;connectable=0;fillColor=none;top=0;left=0;bottom=0;right=0;align=left;spacingLeft=6;overflow=hidden;whiteSpace=wrap;html=1;fontSize=15;" parent="8XU_Pl_0qXl7zwyLGYIP-40" vertex="1">
          <mxGeometry x="30" width="170" height="39" as="geometry">
            <mxRectangle width="170" height="39" as="alternateBounds" />
          </mxGeometry>
        </mxCell>
        <mxCell id="8XU_Pl_0qXl7zwyLGYIP-43" value="gold.dim_products" style="shape=table;startSize=30;container=1;collapsible=1;childLayout=tableLayout;fixedRows=1;rowLines=0;fontStyle=1;align=center;resizeLast=1;html=1;fillColor=#fff2cc;strokeColor=#d6b656;rounded=1;fontSize=15;" parent="1" vertex="1">
          <mxGeometry x="820" y="201" width="200" height="427" as="geometry" />
        </mxCell>
        <mxCell id="8XU_Pl_0qXl7zwyLGYIP-44" value="" style="shape=tableRow;horizontal=0;startSize=0;swimlaneHead=0;swimlaneBody=0;fillColor=none;collapsible=0;dropTarget=0;points=[[0,0.5],[1,0.5]];portConstraint=eastwest;top=0;left=0;right=0;bottom=1;fontSize=15;" parent="8XU_Pl_0qXl7zwyLGYIP-43" vertex="1">
          <mxGeometry y="30" width="200" height="39" as="geometry" />
        </mxCell>
        <mxCell id="8XU_Pl_0qXl7zwyLGYIP-45" value="PK" style="shape=partialRectangle;connectable=0;fillColor=none;top=0;left=0;bottom=0;right=0;fontStyle=1;overflow=hidden;whiteSpace=wrap;html=1;fontSize=15;" parent="8XU_Pl_0qXl7zwyLGYIP-44" vertex="1">
          <mxGeometry width="30" height="39" as="geometry">
            <mxRectangle width="30" height="39" as="alternateBounds" />
          </mxGeometry>
        </mxCell>
        <mxCell id="8XU_Pl_0qXl7zwyLGYIP-46" value="&lt;span style=&quot;background-color: rgb(204, 204, 204);&quot;&gt;product_key&lt;/span&gt;" style="shape=partialRectangle;connectable=0;fillColor=none;top=0;left=0;bottom=0;right=0;align=left;spacingLeft=6;fontStyle=5;overflow=hidden;whiteSpace=wrap;html=1;fontSize=15;" parent="8XU_Pl_0qXl7zwyLGYIP-44" vertex="1">
          <mxGeometry x="30" width="170" height="39" as="geometry">
            <mxRectangle width="170" height="39" as="alternateBounds" />
          </mxGeometry>
        </mxCell>
        <mxCell id="8XU_Pl_0qXl7zwyLGYIP-47" value="" style="shape=tableRow;horizontal=0;startSize=0;swimlaneHead=0;swimlaneBody=0;fillColor=none;collapsible=0;dropTarget=0;points=[[0,0.5],[1,0.5]];portConstraint=eastwest;top=0;left=0;right=0;bottom=0;fontSize=15;" parent="8XU_Pl_0qXl7zwyLGYIP-43" vertex="1">
          <mxGeometry y="69" width="200" height="39" as="geometry" />
        </mxCell>
        <mxCell id="8XU_Pl_0qXl7zwyLGYIP-48" value="" style="shape=partialRectangle;connectable=0;fillColor=none;top=0;left=0;bottom=0;right=0;editable=1;overflow=hidden;whiteSpace=wrap;html=1;fontSize=15;" parent="8XU_Pl_0qXl7zwyLGYIP-47" vertex="1">
          <mxGeometry width="30" height="39" as="geometry">
            <mxRectangle width="30" height="39" as="alternateBounds" />
          </mxGeometry>
        </mxCell>
        <mxCell id="8XU_Pl_0qXl7zwyLGYIP-49" value="product_id" style="shape=partialRectangle;connectable=0;fillColor=none;top=0;left=0;bottom=0;right=0;align=left;spacingLeft=6;overflow=hidden;whiteSpace=wrap;html=1;fontSize=15;strokeColor=default;gradientColor=none;" parent="8XU_Pl_0qXl7zwyLGYIP-47" vertex="1">
          <mxGeometry x="30" width="170" height="39" as="geometry">
            <mxRectangle width="170" height="39" as="alternateBounds" />
          </mxGeometry>
        </mxCell>
        <mxCell id="8XU_Pl_0qXl7zwyLGYIP-53" value="" style="shape=tableRow;horizontal=0;startSize=0;swimlaneHead=0;swimlaneBody=0;fillColor=none;collapsible=0;dropTarget=0;points=[[0,0.5],[1,0.5]];portConstraint=eastwest;top=0;left=0;right=0;bottom=0;fontSize=15;" parent="8XU_Pl_0qXl7zwyLGYIP-43" vertex="1">
          <mxGeometry y="108" width="200" height="39" as="geometry" />
        </mxCell>
        <mxCell id="8XU_Pl_0qXl7zwyLGYIP-54" value="" style="shape=partialRectangle;connectable=0;fillColor=none;top=0;left=0;bottom=0;right=0;editable=1;overflow=hidden;whiteSpace=wrap;html=1;fontSize=15;" parent="8XU_Pl_0qXl7zwyLGYIP-53" vertex="1">
          <mxGeometry width="30" height="39" as="geometry">
            <mxRectangle width="30" height="39" as="alternateBounds" />
          </mxGeometry>
        </mxCell>
        <mxCell id="8XU_Pl_0qXl7zwyLGYIP-55" value="product_number" style="shape=partialRectangle;connectable=0;fillColor=none;top=0;left=0;bottom=0;right=0;align=left;spacingLeft=6;overflow=hidden;whiteSpace=wrap;html=1;fontSize=15;" parent="8XU_Pl_0qXl7zwyLGYIP-53" vertex="1">
          <mxGeometry x="30" width="170" height="39" as="geometry">
            <mxRectangle width="170" height="39" as="alternateBounds" />
          </mxGeometry>
        </mxCell>
        <mxCell id="8XU_Pl_0qXl7zwyLGYIP-56" value="" style="shape=tableRow;horizontal=0;startSize=0;swimlaneHead=0;swimlaneBody=0;fillColor=none;collapsible=0;dropTarget=0;points=[[0,0.5],[1,0.5]];portConstraint=eastwest;top=0;left=0;right=0;bottom=0;fontSize=15;" parent="8XU_Pl_0qXl7zwyLGYIP-43" vertex="1">
          <mxGeometry y="147" width="200" height="42" as="geometry" />
        </mxCell>
        <mxCell id="8XU_Pl_0qXl7zwyLGYIP-57" value="" style="shape=partialRectangle;connectable=0;fillColor=none;top=0;left=0;bottom=0;right=0;editable=1;overflow=hidden;whiteSpace=wrap;html=1;fontSize=15;" parent="8XU_Pl_0qXl7zwyLGYIP-56" vertex="1">
          <mxGeometry width="30" height="42" as="geometry">
            <mxRectangle width="30" height="42" as="alternateBounds" />
          </mxGeometry>
        </mxCell>
        <mxCell id="8XU_Pl_0qXl7zwyLGYIP-58" value="product_name" style="shape=partialRectangle;connectable=0;fillColor=none;top=0;left=0;bottom=0;right=0;align=left;spacingLeft=6;overflow=hidden;whiteSpace=wrap;html=1;fontSize=15;" parent="8XU_Pl_0qXl7zwyLGYIP-56" vertex="1">
          <mxGeometry x="30" width="170" height="42" as="geometry">
            <mxRectangle width="170" height="42" as="alternateBounds" />
          </mxGeometry>
        </mxCell>
        <mxCell id="8XU_Pl_0qXl7zwyLGYIP-59" value="" style="shape=tableRow;horizontal=0;startSize=0;swimlaneHead=0;swimlaneBody=0;fillColor=none;collapsible=0;dropTarget=0;points=[[0,0.5],[1,0.5]];portConstraint=eastwest;top=0;left=0;right=0;bottom=0;fontSize=15;" parent="8XU_Pl_0qXl7zwyLGYIP-43" vertex="1">
          <mxGeometry y="189" width="200" height="43" as="geometry" />
        </mxCell>
        <mxCell id="8XU_Pl_0qXl7zwyLGYIP-60" value="" style="shape=partialRectangle;connectable=0;fillColor=none;top=0;left=0;bottom=0;right=0;editable=1;overflow=hidden;whiteSpace=wrap;html=1;fontSize=15;" parent="8XU_Pl_0qXl7zwyLGYIP-59" vertex="1">
          <mxGeometry width="30" height="43" as="geometry">
            <mxRectangle width="30" height="43" as="alternateBounds" />
          </mxGeometry>
        </mxCell>
        <mxCell id="8XU_Pl_0qXl7zwyLGYIP-61" value="category_id" style="shape=partialRectangle;connectable=0;fillColor=none;top=0;left=0;bottom=0;right=0;align=left;spacingLeft=6;overflow=hidden;whiteSpace=wrap;html=1;fontSize=15;" parent="8XU_Pl_0qXl7zwyLGYIP-59" vertex="1">
          <mxGeometry x="30" width="170" height="43" as="geometry">
            <mxRectangle width="170" height="43" as="alternateBounds" />
          </mxGeometry>
        </mxCell>
        <mxCell id="8XU_Pl_0qXl7zwyLGYIP-62" value="" style="shape=tableRow;horizontal=0;startSize=0;swimlaneHead=0;swimlaneBody=0;fillColor=none;collapsible=0;dropTarget=0;points=[[0,0.5],[1,0.5]];portConstraint=eastwest;top=0;left=0;right=0;bottom=0;fontSize=15;" parent="8XU_Pl_0qXl7zwyLGYIP-43" vertex="1">
          <mxGeometry y="232" width="200" height="39" as="geometry" />
        </mxCell>
        <mxCell id="8XU_Pl_0qXl7zwyLGYIP-63" value="" style="shape=partialRectangle;connectable=0;fillColor=none;top=0;left=0;bottom=0;right=0;editable=1;overflow=hidden;whiteSpace=wrap;html=1;fontSize=15;" parent="8XU_Pl_0qXl7zwyLGYIP-62" vertex="1">
          <mxGeometry width="30" height="39" as="geometry">
            <mxRectangle width="30" height="39" as="alternateBounds" />
          </mxGeometry>
        </mxCell>
        <mxCell id="8XU_Pl_0qXl7zwyLGYIP-64" value="category" style="shape=partialRectangle;connectable=0;fillColor=none;top=0;left=0;bottom=0;right=0;align=left;spacingLeft=6;overflow=hidden;whiteSpace=wrap;html=1;fontSize=15;" parent="8XU_Pl_0qXl7zwyLGYIP-62" vertex="1">
          <mxGeometry x="30" width="170" height="39" as="geometry">
            <mxRectangle width="170" height="39" as="alternateBounds" />
          </mxGeometry>
        </mxCell>
        <mxCell id="8XU_Pl_0qXl7zwyLGYIP-65" value="" style="shape=tableRow;horizontal=0;startSize=0;swimlaneHead=0;swimlaneBody=0;fillColor=none;collapsible=0;dropTarget=0;points=[[0,0.5],[1,0.5]];portConstraint=eastwest;top=0;left=0;right=0;bottom=0;fontSize=15;" parent="8XU_Pl_0qXl7zwyLGYIP-43" vertex="1">
          <mxGeometry y="271" width="200" height="39" as="geometry" />
        </mxCell>
        <mxCell id="8XU_Pl_0qXl7zwyLGYIP-66" value="" style="shape=partialRectangle;connectable=0;fillColor=none;top=0;left=0;bottom=0;right=0;editable=1;overflow=hidden;whiteSpace=wrap;html=1;fontSize=15;" parent="8XU_Pl_0qXl7zwyLGYIP-65" vertex="1">
          <mxGeometry width="30" height="39" as="geometry">
            <mxRectangle width="30" height="39" as="alternateBounds" />
          </mxGeometry>
        </mxCell>
        <mxCell id="8XU_Pl_0qXl7zwyLGYIP-67" value="sub_category" style="shape=partialRectangle;connectable=0;fillColor=none;top=0;left=0;bottom=0;right=0;align=left;spacingLeft=6;overflow=hidden;whiteSpace=wrap;html=1;fontSize=15;" parent="8XU_Pl_0qXl7zwyLGYIP-65" vertex="1">
          <mxGeometry x="30" width="170" height="39" as="geometry">
            <mxRectangle width="170" height="39" as="alternateBounds" />
          </mxGeometry>
        </mxCell>
        <mxCell id="8XU_Pl_0qXl7zwyLGYIP-68" value="" style="shape=tableRow;horizontal=0;startSize=0;swimlaneHead=0;swimlaneBody=0;fillColor=none;collapsible=0;dropTarget=0;points=[[0,0.5],[1,0.5]];portConstraint=eastwest;top=0;left=0;right=0;bottom=0;fontSize=15;" parent="8XU_Pl_0qXl7zwyLGYIP-43" vertex="1">
          <mxGeometry y="310" width="200" height="39" as="geometry" />
        </mxCell>
        <mxCell id="8XU_Pl_0qXl7zwyLGYIP-69" value="" style="shape=partialRectangle;connectable=0;fillColor=none;top=0;left=0;bottom=0;right=0;editable=1;overflow=hidden;whiteSpace=wrap;html=1;fontSize=15;" parent="8XU_Pl_0qXl7zwyLGYIP-68" vertex="1">
          <mxGeometry width="30" height="39" as="geometry">
            <mxRectangle width="30" height="39" as="alternateBounds" />
          </mxGeometry>
        </mxCell>
        <mxCell id="8XU_Pl_0qXl7zwyLGYIP-70" value="product_cost" style="shape=partialRectangle;connectable=0;fillColor=none;top=0;left=0;bottom=0;right=0;align=left;spacingLeft=6;overflow=hidden;whiteSpace=wrap;html=1;fontSize=15;" parent="8XU_Pl_0qXl7zwyLGYIP-68" vertex="1">
          <mxGeometry x="30" width="170" height="39" as="geometry">
            <mxRectangle width="170" height="39" as="alternateBounds" />
          </mxGeometry>
        </mxCell>
        <mxCell id="8XU_Pl_0qXl7zwyLGYIP-71" value="" style="shape=tableRow;horizontal=0;startSize=0;swimlaneHead=0;swimlaneBody=0;fillColor=none;collapsible=0;dropTarget=0;points=[[0,0.5],[1,0.5]];portConstraint=eastwest;top=0;left=0;right=0;bottom=0;fontSize=15;" parent="8XU_Pl_0qXl7zwyLGYIP-43" vertex="1">
          <mxGeometry y="349" width="200" height="39" as="geometry" />
        </mxCell>
        <mxCell id="8XU_Pl_0qXl7zwyLGYIP-72" value="" style="shape=partialRectangle;connectable=0;fillColor=none;top=0;left=0;bottom=0;right=0;editable=1;overflow=hidden;whiteSpace=wrap;html=1;fontSize=15;" parent="8XU_Pl_0qXl7zwyLGYIP-71" vertex="1">
          <mxGeometry width="30" height="39" as="geometry">
            <mxRectangle width="30" height="39" as="alternateBounds" />
          </mxGeometry>
        </mxCell>
        <mxCell id="8XU_Pl_0qXl7zwyLGYIP-73" value="maintenance" style="shape=partialRectangle;connectable=0;fillColor=none;top=0;left=0;bottom=0;right=0;align=left;spacingLeft=6;overflow=hidden;whiteSpace=wrap;html=1;fontSize=15;" parent="8XU_Pl_0qXl7zwyLGYIP-71" vertex="1">
          <mxGeometry x="30" width="170" height="39" as="geometry">
            <mxRectangle width="170" height="39" as="alternateBounds" />
          </mxGeometry>
        </mxCell>
        <mxCell id="8XU_Pl_0qXl7zwyLGYIP-74" value="" style="shape=tableRow;horizontal=0;startSize=0;swimlaneHead=0;swimlaneBody=0;fillColor=none;collapsible=0;dropTarget=0;points=[[0,0.5],[1,0.5]];portConstraint=eastwest;top=0;left=0;right=0;bottom=0;fontSize=15;" parent="8XU_Pl_0qXl7zwyLGYIP-43" vertex="1">
          <mxGeometry y="388" width="200" height="39" as="geometry" />
        </mxCell>
        <mxCell id="8XU_Pl_0qXl7zwyLGYIP-75" value="" style="shape=partialRectangle;connectable=0;fillColor=none;top=0;left=0;bottom=0;right=0;editable=1;overflow=hidden;whiteSpace=wrap;html=1;fontSize=15;" parent="8XU_Pl_0qXl7zwyLGYIP-74" vertex="1">
          <mxGeometry width="30" height="39" as="geometry">
            <mxRectangle width="30" height="39" as="alternateBounds" />
          </mxGeometry>
        </mxCell>
        <mxCell id="8XU_Pl_0qXl7zwyLGYIP-76" value="start_date" style="shape=partialRectangle;connectable=0;fillColor=none;top=0;left=0;bottom=0;right=0;align=left;spacingLeft=6;overflow=hidden;whiteSpace=wrap;html=1;fontSize=15;" parent="8XU_Pl_0qXl7zwyLGYIP-74" vertex="1">
          <mxGeometry x="30" width="170" height="39" as="geometry">
            <mxRectangle width="170" height="39" as="alternateBounds" />
          </mxGeometry>
        </mxCell>
        <mxCell id="8XU_Pl_0qXl7zwyLGYIP-77" value="gold.fact_sales" style="shape=table;startSize=30;container=1;collapsible=1;childLayout=tableLayout;fixedRows=1;rowLines=0;fontStyle=1;align=center;resizeLast=1;html=1;fillColor=#dae8fc;strokeColor=#6c8ebf;rounded=1;fontSize=15;gradientColor=none;" parent="1" vertex="1">
          <mxGeometry x="370" y="201" width="215" height="409" as="geometry" />
        </mxCell>
        <mxCell id="8XU_Pl_0qXl7zwyLGYIP-81" value="" style="shape=tableRow;horizontal=0;startSize=0;swimlaneHead=0;swimlaneBody=0;fillColor=none;collapsible=0;dropTarget=0;points=[[0,0.5],[1,0.5]];portConstraint=eastwest;top=0;left=0;right=0;bottom=0;fontSize=15;" parent="8XU_Pl_0qXl7zwyLGYIP-77" vertex="1">
          <mxGeometry y="30" width="215" height="39" as="geometry" />
        </mxCell>
        <mxCell id="8XU_Pl_0qXl7zwyLGYIP-82" value="" style="shape=partialRectangle;connectable=0;fillColor=none;top=0;left=0;bottom=0;right=0;editable=1;overflow=hidden;whiteSpace=wrap;html=1;fontSize=15;" parent="8XU_Pl_0qXl7zwyLGYIP-81" vertex="1">
          <mxGeometry width="30" height="39" as="geometry">
            <mxRectangle width="30" height="39" as="alternateBounds" />
          </mxGeometry>
        </mxCell>
        <mxCell id="8XU_Pl_0qXl7zwyLGYIP-83" value="order_number" style="shape=partialRectangle;connectable=0;fillColor=none;top=0;left=0;bottom=0;right=0;align=left;spacingLeft=6;overflow=hidden;whiteSpace=wrap;html=1;fontSize=15;strokeColor=default;gradientColor=none;" parent="8XU_Pl_0qXl7zwyLGYIP-81" vertex="1">
          <mxGeometry x="30" width="185" height="39" as="geometry">
            <mxRectangle width="185" height="39" as="alternateBounds" />
          </mxGeometry>
        </mxCell>
        <mxCell id="8XU_Pl_0qXl7zwyLGYIP-84" value="" style="shape=tableRow;horizontal=0;startSize=0;swimlaneHead=0;swimlaneBody=0;fillColor=none;collapsible=0;dropTarget=0;points=[[0,0.5],[1,0.5]];portConstraint=eastwest;top=0;left=0;right=0;bottom=0;fontSize=15;" parent="8XU_Pl_0qXl7zwyLGYIP-77" vertex="1">
          <mxGeometry y="69" width="215" height="39" as="geometry" />
        </mxCell>
        <mxCell id="8XU_Pl_0qXl7zwyLGYIP-85" value="&lt;b&gt;FK1&lt;/b&gt;" style="shape=partialRectangle;connectable=0;fillColor=none;top=0;left=0;bottom=0;right=0;editable=1;overflow=hidden;whiteSpace=wrap;html=1;fontSize=15;" parent="8XU_Pl_0qXl7zwyLGYIP-84" vertex="1">
          <mxGeometry width="30" height="39" as="geometry">
            <mxRectangle width="30" height="39" as="alternateBounds" />
          </mxGeometry>
        </mxCell>
        <mxCell id="8XU_Pl_0qXl7zwyLGYIP-86" value="&lt;span style=&quot;background-color: rgb(204, 204, 204);&quot;&gt;product_key&lt;/span&gt;" style="shape=partialRectangle;connectable=0;fillColor=none;top=0;left=0;bottom=0;right=0;align=left;spacingLeft=6;overflow=hidden;whiteSpace=wrap;html=1;fontSize=15;shadow=1;" parent="8XU_Pl_0qXl7zwyLGYIP-84" vertex="1">
          <mxGeometry x="30" width="185" height="39" as="geometry">
            <mxRectangle width="185" height="39" as="alternateBounds" />
          </mxGeometry>
        </mxCell>
        <mxCell id="8XU_Pl_0qXl7zwyLGYIP-87" value="" style="shape=tableRow;horizontal=0;startSize=0;swimlaneHead=0;swimlaneBody=0;fillColor=none;collapsible=0;dropTarget=0;points=[[0,0.5],[1,0.5]];portConstraint=eastwest;top=0;left=0;right=0;bottom=0;fontSize=15;strokeColor=default;swimlaneFillColor=default;" parent="8XU_Pl_0qXl7zwyLGYIP-77" vertex="1">
          <mxGeometry y="108" width="215" height="39" as="geometry" />
        </mxCell>
        <mxCell id="8XU_Pl_0qXl7zwyLGYIP-88" value="&lt;b&gt;FK2&lt;/b&gt;" style="shape=partialRectangle;connectable=0;fillColor=none;top=0;left=0;bottom=0;right=0;editable=1;overflow=hidden;whiteSpace=wrap;html=1;fontSize=15;" parent="8XU_Pl_0qXl7zwyLGYIP-87" vertex="1">
          <mxGeometry width="30" height="39" as="geometry">
            <mxRectangle width="30" height="39" as="alternateBounds" />
          </mxGeometry>
        </mxCell>
        <mxCell id="8XU_Pl_0qXl7zwyLGYIP-89" value="&lt;span style=&quot;background-color: rgb(204, 204, 204);&quot;&gt;customer_key&lt;/span&gt;" style="shape=partialRectangle;connectable=0;fillColor=none;top=0;left=0;bottom=0;right=0;align=left;spacingLeft=6;overflow=hidden;whiteSpace=wrap;html=1;fontSize=15;" parent="8XU_Pl_0qXl7zwyLGYIP-87" vertex="1">
          <mxGeometry x="30" width="185" height="39" as="geometry">
            <mxRectangle width="185" height="39" as="alternateBounds" />
          </mxGeometry>
        </mxCell>
        <mxCell id="8XU_Pl_0qXl7zwyLGYIP-90" value="" style="shape=tableRow;horizontal=0;startSize=0;swimlaneHead=0;swimlaneBody=0;fillColor=none;collapsible=0;dropTarget=0;points=[[0,0.5],[1,0.5]];portConstraint=eastwest;top=0;left=0;right=0;bottom=0;fontSize=15;" parent="8XU_Pl_0qXl7zwyLGYIP-77" vertex="1">
          <mxGeometry y="147" width="215" height="32" as="geometry" />
        </mxCell>
        <mxCell id="8XU_Pl_0qXl7zwyLGYIP-91" value="" style="shape=partialRectangle;connectable=0;fillColor=none;top=0;left=0;bottom=0;right=0;editable=1;overflow=hidden;whiteSpace=wrap;html=1;fontSize=15;" parent="8XU_Pl_0qXl7zwyLGYIP-90" vertex="1">
          <mxGeometry width="30" height="32" as="geometry">
            <mxRectangle width="30" height="32" as="alternateBounds" />
          </mxGeometry>
        </mxCell>
        <mxCell id="8XU_Pl_0qXl7zwyLGYIP-92" value="order_date" style="shape=partialRectangle;connectable=0;fillColor=none;top=0;left=0;bottom=0;right=0;align=left;spacingLeft=6;overflow=hidden;whiteSpace=wrap;html=1;fontSize=15;" parent="8XU_Pl_0qXl7zwyLGYIP-90" vertex="1">
          <mxGeometry x="30" width="185" height="32" as="geometry">
            <mxRectangle width="185" height="32" as="alternateBounds" />
          </mxGeometry>
        </mxCell>
        <mxCell id="8XU_Pl_0qXl7zwyLGYIP-93" value="" style="shape=tableRow;horizontal=0;startSize=0;swimlaneHead=0;swimlaneBody=0;fillColor=none;collapsible=0;dropTarget=0;points=[[0,0.5],[1,0.5]];portConstraint=eastwest;top=0;left=0;right=0;bottom=0;fontSize=15;" parent="8XU_Pl_0qXl7zwyLGYIP-77" vertex="1">
          <mxGeometry y="179" width="215" height="39" as="geometry" />
        </mxCell>
        <mxCell id="8XU_Pl_0qXl7zwyLGYIP-94" value="" style="shape=partialRectangle;connectable=0;fillColor=none;top=0;left=0;bottom=0;right=0;editable=1;overflow=hidden;whiteSpace=wrap;html=1;fontSize=15;" parent="8XU_Pl_0qXl7zwyLGYIP-93" vertex="1">
          <mxGeometry width="30" height="39" as="geometry">
            <mxRectangle width="30" height="39" as="alternateBounds" />
          </mxGeometry>
        </mxCell>
        <mxCell id="8XU_Pl_0qXl7zwyLGYIP-95" value="shipper_date" style="shape=partialRectangle;connectable=0;fillColor=none;top=0;left=0;bottom=0;right=0;align=left;spacingLeft=6;overflow=hidden;whiteSpace=wrap;html=1;fontSize=15;" parent="8XU_Pl_0qXl7zwyLGYIP-93" vertex="1">
          <mxGeometry x="30" width="185" height="39" as="geometry">
            <mxRectangle width="185" height="39" as="alternateBounds" />
          </mxGeometry>
        </mxCell>
        <mxCell id="8XU_Pl_0qXl7zwyLGYIP-96" value="" style="shape=tableRow;horizontal=0;startSize=0;swimlaneHead=0;swimlaneBody=0;fillColor=none;collapsible=0;dropTarget=0;points=[[0,0.5],[1,0.5]];portConstraint=eastwest;top=0;left=0;right=0;bottom=0;fontSize=15;" parent="8XU_Pl_0qXl7zwyLGYIP-77" vertex="1">
          <mxGeometry y="218" width="215" height="39" as="geometry" />
        </mxCell>
        <mxCell id="8XU_Pl_0qXl7zwyLGYIP-97" value="" style="shape=partialRectangle;connectable=0;fillColor=none;top=0;left=0;bottom=0;right=0;editable=1;overflow=hidden;whiteSpace=wrap;html=1;fontSize=15;" parent="8XU_Pl_0qXl7zwyLGYIP-96" vertex="1">
          <mxGeometry width="30" height="39" as="geometry">
            <mxRectangle width="30" height="39" as="alternateBounds" />
          </mxGeometry>
        </mxCell>
        <mxCell id="8XU_Pl_0qXl7zwyLGYIP-98" value="due_date" style="shape=partialRectangle;connectable=0;fillColor=none;top=0;left=0;bottom=0;right=0;align=left;spacingLeft=6;overflow=hidden;whiteSpace=wrap;html=1;fontSize=15;" parent="8XU_Pl_0qXl7zwyLGYIP-96" vertex="1">
          <mxGeometry x="30" width="185" height="39" as="geometry">
            <mxRectangle width="185" height="39" as="alternateBounds" />
          </mxGeometry>
        </mxCell>
        <mxCell id="8XU_Pl_0qXl7zwyLGYIP-99" value="" style="shape=tableRow;horizontal=0;startSize=0;swimlaneHead=0;swimlaneBody=0;fillColor=none;collapsible=0;dropTarget=0;points=[[0,0.5],[1,0.5]];portConstraint=eastwest;top=0;left=0;right=0;bottom=0;fontSize=15;" parent="8XU_Pl_0qXl7zwyLGYIP-77" vertex="1">
          <mxGeometry y="257" width="215" height="39" as="geometry" />
        </mxCell>
        <mxCell id="8XU_Pl_0qXl7zwyLGYIP-100" value="" style="shape=partialRectangle;connectable=0;fillColor=none;top=0;left=0;bottom=0;right=0;editable=1;overflow=hidden;whiteSpace=wrap;html=1;fontSize=15;" parent="8XU_Pl_0qXl7zwyLGYIP-99" vertex="1">
          <mxGeometry width="30" height="39" as="geometry">
            <mxRectangle width="30" height="39" as="alternateBounds" />
          </mxGeometry>
        </mxCell>
        <mxCell id="8XU_Pl_0qXl7zwyLGYIP-101" value="sales_amount" style="shape=partialRectangle;connectable=0;fillColor=none;top=0;left=0;bottom=0;right=0;align=left;spacingLeft=6;overflow=hidden;whiteSpace=wrap;html=1;fontSize=15;" parent="8XU_Pl_0qXl7zwyLGYIP-99" vertex="1">
          <mxGeometry x="30" width="185" height="39" as="geometry">
            <mxRectangle width="185" height="39" as="alternateBounds" />
          </mxGeometry>
        </mxCell>
        <mxCell id="8XU_Pl_0qXl7zwyLGYIP-102" value="" style="shape=tableRow;horizontal=0;startSize=0;swimlaneHead=0;swimlaneBody=0;fillColor=none;collapsible=0;dropTarget=0;points=[[0,0.5],[1,0.5]];portConstraint=eastwest;top=0;left=0;right=0;bottom=0;fontSize=15;" parent="8XU_Pl_0qXl7zwyLGYIP-77" vertex="1">
          <mxGeometry y="296" width="215" height="39" as="geometry" />
        </mxCell>
        <mxCell id="8XU_Pl_0qXl7zwyLGYIP-103" value="" style="shape=partialRectangle;connectable=0;fillColor=none;top=0;left=0;bottom=0;right=0;editable=1;overflow=hidden;whiteSpace=wrap;html=1;fontSize=15;" parent="8XU_Pl_0qXl7zwyLGYIP-102" vertex="1">
          <mxGeometry width="30" height="39" as="geometry">
            <mxRectangle width="30" height="39" as="alternateBounds" />
          </mxGeometry>
        </mxCell>
        <mxCell id="8XU_Pl_0qXl7zwyLGYIP-104" value="quantity" style="shape=partialRectangle;connectable=0;fillColor=none;top=0;left=0;bottom=0;right=0;align=left;spacingLeft=6;overflow=hidden;whiteSpace=wrap;html=1;fontSize=15;" parent="8XU_Pl_0qXl7zwyLGYIP-102" vertex="1">
          <mxGeometry x="30" width="185" height="39" as="geometry">
            <mxRectangle width="185" height="39" as="alternateBounds" />
          </mxGeometry>
        </mxCell>
        <mxCell id="8XU_Pl_0qXl7zwyLGYIP-105" value="" style="shape=tableRow;horizontal=0;startSize=0;swimlaneHead=0;swimlaneBody=0;fillColor=none;collapsible=0;dropTarget=0;points=[[0,0.5],[1,0.5]];portConstraint=eastwest;top=0;left=0;right=0;bottom=0;fontSize=15;" parent="8XU_Pl_0qXl7zwyLGYIP-77" vertex="1">
          <mxGeometry y="335" width="215" height="74" as="geometry" />
        </mxCell>
        <mxCell id="8XU_Pl_0qXl7zwyLGYIP-106" value="" style="shape=partialRectangle;connectable=0;fillColor=none;top=0;left=0;bottom=0;right=0;editable=1;overflow=hidden;whiteSpace=wrap;html=1;fontSize=15;" parent="8XU_Pl_0qXl7zwyLGYIP-105" vertex="1">
          <mxGeometry width="30" height="74" as="geometry">
            <mxRectangle width="30" height="74" as="alternateBounds" />
          </mxGeometry>
        </mxCell>
        <mxCell id="8XU_Pl_0qXl7zwyLGYIP-107" value="price" style="shape=partialRectangle;connectable=0;fillColor=none;top=0;left=0;bottom=0;right=0;align=left;spacingLeft=6;overflow=hidden;whiteSpace=wrap;html=1;fontSize=15;" parent="8XU_Pl_0qXl7zwyLGYIP-105" vertex="1">
          <mxGeometry x="30" width="185" height="74" as="geometry">
            <mxRectangle width="185" height="74" as="alternateBounds" />
          </mxGeometry>
        </mxCell>
        <mxCell id="8XU_Pl_0qXl7zwyLGYIP-114" value="" style="edgeStyle=entityRelationEdgeStyle;fontSize=12;html=1;endArrow=ERzeroToMany;startArrow=ERmandOne;rounded=0;entryX=0;entryY=0.5;entryDx=0;entryDy=0;" parent="1" target="8XU_Pl_0qXl7zwyLGYIP-87" edge="1">
          <mxGeometry width="100" height="100" relative="1" as="geometry">
            <mxPoint x="110" y="240" as="sourcePoint" />
            <mxPoint x="320" y="330" as="targetPoint" />
            <Array as="points">
              <mxPoint x="130" y="180" />
              <mxPoint x="270" y="329" />
            </Array>
          </mxGeometry>
        </mxCell>
        <mxCell id="8XU_Pl_0qXl7zwyLGYIP-121" value="Text" style="edgeLabel;html=1;align=center;verticalAlign=middle;resizable=0;points=[];" parent="8XU_Pl_0qXl7zwyLGYIP-114" vertex="1" connectable="0">
          <mxGeometry x="-0.0519" y="-1" relative="1" as="geometry">
            <mxPoint x="-1" as="offset" />
          </mxGeometry>
        </mxCell>
        <mxCell id="8XU_Pl_0qXl7zwyLGYIP-122" value="Text" style="edgeLabel;html=1;align=center;verticalAlign=middle;resizable=0;points=[];" parent="8XU_Pl_0qXl7zwyLGYIP-114" vertex="1" connectable="0">
          <mxGeometry x="-0.0783" y="2" relative="1" as="geometry">
            <mxPoint as="offset" />
          </mxGeometry>
        </mxCell>
        <mxCell id="8XU_Pl_0qXl7zwyLGYIP-117" value="" style="edgeStyle=entityRelationEdgeStyle;fontSize=12;html=1;endArrow=ERoneToMany;startArrow=ERmandOne;rounded=0;exitX=0;exitY=0.5;exitDx=0;exitDy=0;" parent="1" source="8XU_Pl_0qXl7zwyLGYIP-44" target="8XU_Pl_0qXl7zwyLGYIP-84" edge="1">
          <mxGeometry width="100" height="100" relative="1" as="geometry">
            <mxPoint x="600" y="400" as="sourcePoint" />
            <mxPoint x="580" y="320" as="targetPoint" />
            <Array as="points">
              <mxPoint x="640" y="260" />
              <mxPoint x="980" y="330" />
              <mxPoint x="810" y="360" />
              <mxPoint x="650" y="360" />
              <mxPoint x="640" y="340" />
              <mxPoint x="720" y="390" />
            </Array>
          </mxGeometry>
        </mxCell>
        <mxCell id="8XU_Pl_0qXl7zwyLGYIP-118" value="Text" style="edgeLabel;html=1;align=center;verticalAlign=middle;resizable=0;points=[];" parent="8XU_Pl_0qXl7zwyLGYIP-117" vertex="1" connectable="0">
          <mxGeometry x="0.011" y="-1" relative="1" as="geometry">
            <mxPoint as="offset" />
          </mxGeometry>
        </mxCell>
        <mxCell id="8XU_Pl_0qXl7zwyLGYIP-124" value="&lt;h1 style=&quot;margin-top: 0px;&quot;&gt;&lt;font style=&quot;font-size: 21px;&quot;&gt;&lt;u&gt;Sales calculation&lt;/u&gt;&lt;/font&gt;&lt;/h1&gt;&lt;p&gt;&lt;font style=&quot;font-size: 14px;&quot;&gt;&amp;nbsp; &amp;nbsp;&lt;/font&gt;&lt;font style=&quot;font-size: 15px;&quot;&gt;sales = quantity *price&lt;/font&gt;&lt;/p&gt;" style="text;html=1;whiteSpace=wrap;overflow=hidden;rounded=0;strokeColor=default;fillColor=none;" parent="1" vertex="1">
          <mxGeometry x="560" y="660" width="180" height="100" as="geometry" />
        </mxCell>
        <mxCell id="8XU_Pl_0qXl7zwyLGYIP-125" value="" style="endArrow=none;dashed=1;html=1;dashPattern=1 3;strokeWidth=2;rounded=0;" parent="1" target="8XU_Pl_0qXl7zwyLGYIP-99" edge="1">
          <mxGeometry width="50" height="50" relative="1" as="geometry">
            <mxPoint x="590" y="660" as="sourcePoint" />
            <mxPoint x="640" y="610" as="targetPoint" />
          </mxGeometry>
        </mxCell>
      </root>
    </mxGraphModel>
  </diagram>
</mxfile>
